# xmcd
#
# Track frame offsets: 
#        150
#        3326
#        12275
#        32257
#        53302
#        73870
#        91041
#        115034
#        137411
#        154659
#        174911
#        201416
#        220925
#        238170
#        252602
#        269368
#        284073
#        300309
#        323042
#        330582
#
# Disc length: 4750 seconds
#
# Revision: 5
# Processed by: cddbd v1.5.2PL0 Copyright (c) Steve Scherf et al.
# Submitted via: ExactAudioCopy v0.99pb5
#
DISCID=0b128c14
DTITLE=Snoop Dogg - Paid Tha Cost To Be Da Bo$$
DYEAR=2002
DGENRE=Hip-Hop
TTITLE0=Don Doggy
TTITLE1=Da Bo$$ Would Like To See You
TTITLE2=Stoplight
TTITLE3=From The Chuuuch To Da Palace (feat. Pharrell)
TTITLE4=I Believe In You (feat. Latoiya Williams)
TTITLE5=Lollipop (feat. Jay-Z, Soopafly and Nate Dogg)
TTITLE6=Ballin' (feat. The Dramatic and Lil' Half Dead)
TTITLE7=Beautiful (feat. Pharrell and Uncle Charlie Wilson)
TTITLE8=Paper'd Up (feat. Mr. Kane and Traci Nelson)
TTITLE9=Wasn't Your Fault (Background vocals by Reo Vanardo)
TTITLE10=Bo$$ Playa (feat. Arch Bishop Don Magic Juan)
TTITLE11=Hourglass (feat. Mr. Kane and Goldie Loc)
TTITLE12=The One And Only
TTITLE13=I Miss That Bitch (feat. E-White)
TTITLE14=From Long Beach 2 Brick City (feat. Redman, Nate Dogg and Warre
TTITLE14=n G)
TTITLE15=Suited N Booted
TTITLE16=You Got What I Want (feat. Ludacris, Goldie Loc and Uncle Charl
TTITLE16=ie Wilson)
TTITLE17=Batman and Robin (feat. Lady Of Rage and RBX)
TTITLE18=A Message 2 Fat Cuzz
TTITLE19=Pimp Slapp'd
EXTD=More correct tracklist than those currently in the db YEAR: 2002
EXTT0=
EXTT1=
EXTT2=
EXTT3=
EXTT4=
EXTT5=
EXTT6=
EXTT7=
EXTT8=
EXTT9=
EXTT10=
EXTT11=
EXTT12=
EXTT13=
EXTT14=
EXTT15=
EXTT16=
EXTT17=
EXTT18=
EXTT19=
PLAYORDER=
